<svg width="2048" height="200" xmlns="http://www.w3.org/2000/svg"><defs xmlns="http://www.w3.org/1999/xhtml"><style type="text/css"><![CDATA[
path { stroke: rgb(255, 255, 255); }
circle { fill: rgb(0, 0, 0); pointer-events: none; }
.q1-9 { fill: rgb(222, 119, 174); }
.q2-9 { fill: rgb(241, 182, 218); }
.q3-9 { fill: rgb(253, 224, 239); }
.q4-9 { fill: rgb(247, 247, 247); }
.q5-9 { fill: rgb(230, 245, 208); }
.q6-9 { fill: rgb(184, 225, 134); }
.q7-9 { fill: rgb(127, 188, 65); }
.q8-9 { fill: rgb(77, 146, 33); }
.q0-9 { fill: rgb(247, 241, 218); }
.q1-9 { fill: rgb(53, 85, 100); }
.q2-9 { fill: rgb(75, 117, 139); }
.q3-9 { fill: rgb(155, 48, 35); }
.q4-9 { fill: rgb(128, 175, 191); }
.q5-9 { fill: rgb(210, 73, 57); }
.q6-9 { fill: rgb(217, 216, 214); }
.q7-9 { fill: rgb(117, 113, 114); }
.q8-9 { fill: rgb(255, 255, 255); }]]></style></defs><path class="q0-9" d="M1624.058 0l9.344 26.723 45.239 42.057 24.601-2.255 31.472-66.525z"/><path class="q1-9" d="M1406.23 164.707l18.364 35.293h44.588l4.772-91.475-14.456-7.56z"/><path class="q2-9" d="M1038.806 0l7.517 73.788 92.072 33.22 43.525-107.007z"/><path class="q3-9" d="M1321.935 0l11.824 102.19 86.401-44.629 4.067-57.56z"/><path class="q4-9" d="M448.105 111.787l9.55 8.17 29.663-13.132 3.283-1.845 8.272-14.696-41.714-56.51z"/><path class="q5-9" d="M1781.495 166.541l28.323 33.459h61.997l-.398-92.815-5.868-7.64-44.299-.293-37.29 39.22z"/><path class="q6-9" d="M1809.818 200l-28.323-33.459-53.781 10.1-12.791 23.359z"/><path class="q7-9" d="M986.682 167.833l58.062 32.167h1.926l6.339-34.308-54.628-21.927-6.998 5.025z"/><path class="q8-9" d="M359.218 150.737l90.232 3.001 8.205-33.782-9.55-8.17-21.711-14.276-25.904 8.158z"/><path class="q0-9" d="M904.108 161.671l24.593 38.329h37.59l20.391-32.167 4.701-19.043-25.188-15.589z"/><path class="q1-9" d="M695.997 200l21.294-34.233-30.636-9.66-45.373-1.321-8.591 45.214z"/><path class="q2-9" d="M849.014 200l1.947-21.273-37.932 3.601-17.581 17.672z"/><path class="q3-9" d="M724.597 0l1.211 7.368 78.326 85.251 24.798-1.32-17.359-68.001-78.986-23.298z"/><path class="q4-9" d="M682.207 92.165l51.301 13.736-13.515-73.462-3.599 4.623z"/><path class="q5-9" d="M54.062 79.361l3.505 99.374 71.571-93.519-40.817-42.087z"/><path class="q6-9" d="M1044.744 200l-58.062-32.167-20.391 32.167z"/><path class="q7-9" d="M0 69.526l54.062 9.835 34.258-36.233-1.015-43.128h-87.305z"/><path class="q8-9" d="M1954.986 81.817l37.013 11.62 25.648-70.881.357-6.063-59.216 50.898z"/><path class="q0-9" d="M1625.079 135.758l32.353 64.242h12.005l6.081-76.459-7.6-13.158-42.558 15.839z"/><path class="q1-9" d="M915.555 50.678l98.215 65.021 9.345-8.576 6.384-16.14-106.19-60.909z"/><path class="q2-9" d="M343.965 70.992l7.156 14.593 49.369 20.084 25.904-8.158-17.029-41.72-25.576-7.222z"/><path class="q3-9" d="M605.982 0l21.493 92.539 88.918-55.478 3.599-4.623 5.816-25.07-1.211-7.368z"/><path class="q4-9" d="M1714.923 200l12.791-23.359-.037-17.974-4.856-19.51-47.303-15.617-6.081 76.459z"/><path class="q5-9" d="M1319.813 117.772l11.844 25.506 74.573 21.43 53.268-63.742-12.08-15.502-27.259-27.902-86.401 44.629z"/><path class="q6-9" d="M719.992 32.438l13.515 73.462 3.146 4.798 9.146 9.339 22.419-3.465 35.916-23.953-78.326-85.251z"/><path class="q7-9" d="M1871.416 107.185l.398 92.815h.594l109.519-47.063-59.446-46.959z"/><path class="q8-9" d="M1722.821 139.158l4.856 19.51 43.578-22.906-33.635-23.764z"/><path class="q0-9" d="M187.866 200l-10.421-29.042-40.796-6.808-50.375 35.85z"/><path class="q1-9" d="M637.489 114.645l3.793 40.141 45.373 1.321 17.677-19.976-27.102-13.944z"/><path class="q2-9" d="M1184.601 200l3.981-38.4-36.767-38.012-28.503 76.412z"/><path class="q3-9" d="M490.601 104.98l47.089 31.423 28.984-32.714-39.062-42.474-28.739 29.07z"/><path class="q4-9" d="M1551.342 166.198l6.618 33.802h12.594l54.525-64.242.281-9.535-13.616-8.235-43.092 20.813z"/><path class="q5-9" d="M1243.563 148.42l15.124 51.58h70.059l2.912-56.723-11.844-25.506-27.574-4.589z"/><path class="q6-9" d="M236.747 107.498l3.851 92.502h38.147l14.236-60.471-22.917-22.015z"/><path class="q7-9" d="M913.918 53.645l52.277 79.556 25.188 15.589 6.998-5.025 15.388-28.065-98.215-65.021z"/><path class="q8-9" d="M469.346 0l59.886 57.204 71.743-57.204z"/><path class="q0-9" d="M928.701 200l-24.593-38.329-33.812-29.151-19.335 46.207-1.947 21.273z"/><path class="q1-9" d="M1599.943 84.084l11.802 33.904 13.616 8.235 42.558-15.839 10.722-41.604-45.239-42.057z"/><path class="q2-9" d="M998.382 143.765l54.628 21.927 24.869-18.726-54.764-39.842-9.345 8.576z"/><path class="q3-9" d="M449.45 153.738l6.108 46.262h72.38l-40.62-93.175-29.663 13.132z"/><path class="q4-9" d="M351.971 200l-5.577-38.944-53.412-21.527-14.236 60.471z"/><path class="q5-9" d="M527.612 61.214l39.062 42.474 43.776 6.138 18.836-4.071-1.811-13.216-21.493-92.539h-5.006l-71.743 57.204z"/><path class="q6-9" d="M1198.9 0l93.339 113.183 27.574 4.589 13.945-15.582-11.824-102.19z"/><path class="q7-9" d="M1123.311 200l28.503-76.412-13.375-15.665-38.878 35.142-.655 56.934z"/><path class="q8-9" d="M409.365 55.791l17.029 41.72 21.711 14.276 9.054-78.012-8.51-21.083z"/><path class="q0-9" d="M762.122 200l-30.755-41.592-14.076 7.359-21.294 34.233z"/><path class="q1-9" d="M1138.395 107.007l.045.916 13.375 15.665 36.767 38.012 54.982-13.181 48.676-35.237-93.339-113.183h-16.98z"/><path class="q2-9" d="M86.274 200l50.375-35.85 36.956-69.086-44.468-9.848-71.571 93.519-5.519 21.265z"/><path class="q3-9" d="M795.448 200l17.581-17.672-8.888-20.49-18.944 2.724-15.989 35.438z"/><path class="q4-9" d="M537.69 136.403l12.808 24.583 59.951-51.16-43.776-6.138z"/><path class="q5-9" d="M1983.02 153.273l15.074 46.727h49.906v-81.43l-12.007-2.242-23.614 4.818z"/><path class="q6-9" d="M1420.16 57.56l27.259 27.902 97.649-78.326 1.77-7.137h-122.611z"/><path class="q7-9" d="M1023.115 107.124l54.764 39.842 21.683-3.9 38.878-35.142-.045-.916-92.072-33.22-16.825 17.196z"/><path class="q8-9" d="M1703.241 66.525l15.712 6.99 56.096-39.136 2.27-34.379h-42.607z"/><path class="q0-9" d="M52.048 200l5.519-21.265-3.505-99.374-54.062-9.835v130.474z"/><path class="q1-9" d="M732.588 0l78.986 23.298 20.416-23.298z"/><path class="q2-9" d="M1657.433 200l-32.353-64.242-54.525 64.242z"/><path class="q3-9" d="M177.445 170.958l10.421 29.042h10.719l18.529-71.726z"/><path class="q4-9" d="M637.468 114.586l.021.059 39.741 7.542 59.423-11.489-3.146-4.798-51.301-13.736z"/><path class="q5-9" d="M1258.687 200l-15.124-51.58-54.982 13.181-3.981 38.4z"/><path class="q6-9" d="M731.367 158.408l30.755 41.592h7.087l15.989-35.438-16.979-47.989-22.419 3.465-10.526 18.534z"/><path class="q7-9" d="M448.649 12.692l8.51 21.083 41.714 56.51 28.739-29.07 1.62-4.011-59.886-57.204h-16.327z"/><path class="q8-9" d="M686.656 156.107l30.636 9.66 14.076-7.359 3.907-19.837-30.941-2.44z"/><path class="q0-9" d="M1536.088 74.358l26.625 13.896 37.229-4.17 33.459-57.362-9.344-26.723h-77.22l-1.77 7.137z"/><path class="q1-9" d="M487.318 106.825l40.62 93.175h23.83l-1.27-39.014-12.808-24.583-47.089-31.423z"/><path class="q2-9" d="M372.514 0l11.274 48.569 25.576 7.222 39.285-43.099 4.37-12.692z"/><path class="q3-9" d="M351.121 85.584l2.671 67.219 5.426-2.066 41.272-45.068z"/><path class="q4-9" d="M346.394 161.056l5.577 38.944h103.588l-6.108-46.262-90.232-3.001-5.426 2.066z"/><path class="q5-9" d="M923.308 30.075l106.19 60.909 16.825-17.196-7.517-73.788h-109.785z"/><path class="q6-9" d="M863.67 102.004l1.506 14.38 5.121 16.135 33.812 29.151 62.087-28.47-52.277-79.556z"/><path class="q7-9" d="M1557.96 200l-6.618-33.802-59.033-57.558-18.354-.114-4.772 91.475z"/><path class="q8-9" d="M768.219 116.573l16.979 47.989 18.944-2.724 61.035-45.453-1.506-14.38-34.738-10.705-24.798 1.32z"/><path class="q0-9" d="M1447.418 85.463l12.08 15.502 14.456 7.56 18.354.114 43.779-34.282 8.979-67.221z"/><path class="q1-9" d="M136.649 164.15l40.796 6.808 39.669-42.684 15.324-24.02-13.987-20.27-44.846 11.081z"/><path class="q2-9" d="M550.498 160.986l1.27 39.014h80.923l8.591-45.214-3.793-40.141-.021-.059-8.183-8.831-18.836 4.071z"/><path class="q3-9" d="M1562.714 88.254l5.939 50.546 43.092-20.813-11.802-33.904z"/><path class="q4-9" d="M1727.677 158.667l.037 17.974 53.781-10.1 2.464-28.069-12.704-2.71z"/><path class="q5-9" d="M1991.998 93.438l20.381 27.708 23.614-4.818-18.347-93.772z"/><path class="q6-9" d="M1775.05 34.379l22.247 51.549 23.952 13.325 44.299.293 6.941-65.076-8.223-34.469h-86.947z"/><path class="q7-9" d="M270.064 117.514l22.917 22.015 53.412 21.527 7.398-8.253-2.671-67.219-7.156-14.593-2.021-.571z"/><path class="q8-9" d="M1424.594 200l-18.364-35.293-74.573-21.43-2.912 56.723z"/><path class="q0-9" d="M2017.646 22.556l18.347 93.772 12.007 2.242v-118.57h-23.598l-6.399 16.493z"/><path class="q1-9" d="M1998.094 200l-15.074-46.727-1.092-.336-109.519 47.063z"/><path class="q2-9" d="M1718.954 73.514l19.64 19.908 58.702-7.495-22.247-51.549z"/><path class="q3-9" d="M627.474 92.539l1.811 13.216 8.183 8.831 44.739-22.421 34.186-55.104z"/><path class="q4-9" d="M1938.549 34.789l20.238 32.602 59.216-50.898 6.399-16.493h-47.234z"/><path class="q5-9" d="M677.23 122.187l27.102 13.944 30.941 2.44 10.526-18.534-9.146-9.339z"/><path class="q6-9" d="M218.452 83.983l13.987 20.27 4.309 3.244 33.317 10.016 71.88-47.093-46.881-70.421h-65.368z"/><path class="q7-9" d="M240.598 200l-3.851-92.502-4.309-3.244-15.324 24.02-18.529 71.726z"/><path class="q8-9" d="M1865.548 99.546l5.868 7.64 51.066-1.207 32.504-24.161 3.801-14.426-20.238-32.602-66.059-.32z"/><path class="q0-9" d="M1864.267 0l8.223 34.469 66.059.32 38.619-34.789z"/><path class="q1-9" d="M1737.621 111.997l33.635 23.764 12.704 2.71 37.29-39.22-23.952-13.325-58.702 7.495z"/><path class="q2-9" d="M1922.482 105.978l59.446 46.959 1.092.336 29.359-32.128-20.381-27.708-37.013-11.62z"/><path class="q3-9" d="M87.305 0l1.015 43.128 40.817 42.087 44.468 9.848 44.846-11.081 11.243-83.983z"/><path class="q4-9" d="M811.574 23.298l17.359 68.001 34.738 10.705 50.248-48.359 1.637-2.967 7.753-20.603 5.713-30.075h-97.032z"/><path class="q5-9" d="M1667.918 110.383l7.6 13.158 47.303 15.617 14.799-27.16.973-18.575-19.64-19.908-15.712-6.99-24.601 2.255z"/><path class="q6-9" d="M1492.309 108.64l59.033 57.558 17.31-27.397-5.939-50.546-26.625-13.896z"/><path class="q7-9" d="M295.063 0l46.881 70.421 2.021.571 39.824-22.423-11.274-48.569z"/><path class="q8-9" d="M1098.907 200l.655-56.934-21.683 3.9-24.869 18.726-6.339 34.308z"/><path class="q0-9" d="M804.141 161.838l8.888 20.49 37.932-3.601 19.335-46.207-5.121-16.135z"/><circle transform="translate(1442.552 162.398)" r="1.5"/><circle transform="translate(1083.146 52.226)" r="1.5"/><circle transform="translate(1351.785 31.238)" r="1.5"/><circle transform="translate(460.801 60.251)" r="1.5"/><circle transform="translate(1806.439 155.123)" r="1.5"/><circle transform="translate(1766.116 189.257)" r="1.5"/><circle transform="translate(1027.386 175.365)" r="1.5"/><circle transform="translate(399.157 132.309)" r="1.5"/><circle transform="translate(947.149 155.556)" r="1.5"/><circle transform="translate(692.938 171.396)" r="1.5"/><circle transform="translate(818.26 192.54)" r="1.5"/><circle transform="translate(792.732 38.618)" r="1.5"/><circle transform="translate(706.494 84.935)" r="1.5"/><circle transform="translate(87.707 99.629)" r="1.5"/><circle transform="translate(1014.653 198.347)" r="1.5"/><circle transform="translate(31.942 46.902)" r="1.5"/><circle transform="translate(1985.163 70.123)" r="1.5"/><circle transform="translate(1650.545 147.435)" r="1.5"/><circle transform="translate(990.925 86.218)" r="1.5"/><circle transform="translate(384.131 84.6)" r="1.5"/><circle transform="translate(672.405 58.392)" r="1.5"/><circle transform="translate(1696.401 151.082)" r="1.5"/><circle transform="translate(1402.052 128.553)" r="1.5"/><circle transform="translate(751.289 76.694)" r="1.5"/><circle transform="translate(1936.803 154.564)" r="1.5"/><circle transform="translate(1751.749 137.307)" r="1.5"/><circle transform="translate(166.412 185.689)" r="1.5"/><circle transform="translate(693.816 141.21)" r="1.5"/><circle transform="translate(1132.437 187.36)" r="1.5"/><circle transform="translate(544.3 107.25)" r="1.5"/><circle transform="translate(1598.971 145.916)" r="1.5"/><circle transform="translate(1274.988 187.557)" r="1.5"/><circle transform="translate(266.046 177.789)" r="1.5"/><circle transform="translate(977.707 106.183)" r="1.5"/><circle transform="translate(514.905 9.967)" r="1.5"/><circle transform="translate(880.612 198.247)" r="1.5"/><circle transform="translate(1630.547 93.706)" r="1.5"/><circle transform="translate(1041.185 140.987)" r="1.5"/><circle transform="translate(503.97 157.765)" r="1.5"/><circle transform="translate(300.02 185.787)" r="1.5"/><circle transform="translate(572.093 81.69)" r="1.5"/><circle transform="translate(1300.006 37.229)" r="1.5"/><circle transform="translate(1124.693 184.472)" r="1.5"/><circle transform="translate(447.55 58.713)" r="1.5"/><circle transform="translate(723.008 190.1)" r="1.5"/><circle transform="translate(1216.197 106.344)" r="1.5"/><circle transform="translate(126.049 128.973)" r="1.5"/><circle transform="translate(802.79 177.15)" r="1.5"/><circle transform="translate(565.834 126.329)" r="1.5"/><circle transform="translate(2028.347 159.181)" r="1.5"/><circle transform="translate(1491.556 41.114)" r="1.5"/><circle transform="translate(1060.896 113.893)" r="1.5"/><circle transform="translate(1742.04 38.888)" r="1.5"/><circle transform="translate(21.928 101.949)" r="1.5"/><circle transform="translate(804.062 .205)" r="1.5"/><circle transform="translate(1619.3 163.17)" r="1.5"/><circle transform="translate(195.327 175.314)" r="1.5"/><circle transform="translate(699.632 110.564)" r="1.5"/><circle transform="translate(1238.248 198.33)" r="1.5"/><circle transform="translate(764.118 159.702)" r="1.5"/><circle transform="translate(481.388 45.055)" r="1.5"/><circle transform="translate(700.571 147.187)" r="1.5"/><circle transform="translate(1576.501 62.181)" r="1.5"/><circle transform="translate(513.307 153.695)" r="1.5"/><circle transform="translate(402.926 18.039)" r="1.5"/><circle transform="translate(374.069 109.334)" r="1.5"/><circle transform="translate(397.844 171.778)" r="1.5"/><circle transform="translate(1005.909 60.094)" r="1.5"/><circle transform="translate(936.827 133.045)" r="1.5"/><circle transform="translate(1499.582 165.373)" r="1.5"/><circle transform="translate(798.53 147.527)" r="1.5"/><circle transform="translate(1500.288 52.001)" r="1.5"/><circle transform="translate(171.794 153.443)" r="1.5"/><circle transform="translate(587.136 151.291)" r="1.5"/><circle transform="translate(1581.928 110.63)" r="1.5"/><circle transform="translate(1758.922 150.953)" r="1.5"/><circle transform="translate(2012.17 79.895)" r="1.5"/><circle transform="translate(1807.179 43.19)" r="1.5"/><circle transform="translate(330.13 111.08)" r="1.5"/><circle transform="translate(1383.496 193.127)" r="1.5"/><circle transform="translate(2044.329 73.603)" r="1.5"/><circle transform="translate(1949.691 184.555)" r="1.5"/><circle transform="translate(1759.421 63.801)" r="1.5"/><circle transform="translate(677.897 67.193)" r="1.5"/><circle transform="translate(1960.048 40.904)" r="1.5"/><circle transform="translate(702.351 124.623)" r="1.5"/><circle transform="translate(299.949 65.015)" r="1.5"/><circle transform="translate(213.393 179.981)" r="1.5"/><circle transform="translate(1934.491 56.77)" r="1.5"/><circle transform="translate(1934.704 12.77)" r="1.5"/><circle transform="translate(1766.196 116.86)" r="1.5"/><circle transform="translate(1973.063 108.661)" r="1.5"/><circle transform="translate(144.814 44.246)" r="1.5"/><circle transform="translate(835.453 27.712)" r="1.5"/><circle transform="translate(1708.694 113.847)" r="1.5"/><circle transform="translate(1549.209 114.475)" r="1.5"/><circle transform="translate(353.159 29.592)" r="1.5"/><circle transform="translate(1073.484 183.883)" r="1.5"/><circle transform="translate(816.245 171.313)" r="1.5"/></svg>